<svg xmlns="http://www.w3.org/2000/svg" viewBox="0 0 340 340"><path fill="#3c3c4f" d="M220.812,222.193H194.693V206.316h19.7a3.5,3.5,0,0,0,0-7h-19.7V176.031a3.5,3.5,0,0,0-7,0v23.285H173.5V169.982a3.5,3.5,0,1,0-7,0v29.334H152.307V174.955a3.5,3.5,0,0,0-7,0v24.361h-21.6a3.5,3.5,0,0,0,0,7h21.6v15.877H119.384a3.5,3.5,0,1,0,0,7h25.923v9.891a3.5,3.5,0,0,0,7,0v-9.891H166.5v9.891a3.5,3.5,0,0,0,7,0v-9.891h14.193v9.891a3.5,3.5,0,0,0,7,0v-9.891h26.119a3.5,3.5,0,0,0,0-7Zm-68.505,0V206.316H166.5v15.877Zm21.193,0V206.316h14.193v15.877Z"/><path fill="#e4efff" d="M227.142,122.271a3.154,3.154,0,0,0-3.154,3.154v18.693h-21.4V125.425a3.154,3.154,0,0,0-3.154-3.154H183.351a3.154,3.154,0,0,0-3.153,3.154v18.693H159.8V125.425a3.154,3.154,0,0,0-3.154-3.154H140.561a3.154,3.154,0,0,0-3.154,3.154v18.693h-21.4V125.425a3.154,3.154,0,0,0-3.154-3.154h-6.689c-3.308,52.413-3.709,102.881,0,150.6H124.9V221.036a45.1,45.1,0,0,1,45.1-45.1h0a45.1,45.1,0,0,1,45.1,45.1v22.25c2.384,1.811,1.607,4.314,0,7V272.87h18.924c4.838-43.168,3.824-94.842,0-150.6Z"/><path fill="#7f91bf" d="M249.384,225.523H228.665a3.5,3.5,0,0,0,0,7h20.719Z"/><rect width="15.552" height="150.599" x="90.616" y="122.271" fill="#7f91bf"/><rect width="15.357" height="150.599" x="234.027" y="122.271" fill="#7f91bf"/><path fill="#e4efff" d="M91.616,272.87H10V240.637a7.15,7.15,0,0,0,0-7.225V102.52a5.92,5.92,0,0,0,0-7.193v-9.4a13.321,13.321,0,0,1,7.612-12.012C27.278,69.3,39.326,67.043,51.3,67.094a6.56,6.56,0,0,0,7,.3A74.04,74.04,0,0,1,84.08,73.9a13.29,13.29,0,0,1,7.536,11.977v65.3c-1.712,2.276-1.622,4.738,0,7.358Z"/><path fill="#3c3c4f" d="M56.677,149.136H44.94a3.84,3.84,0,0,1-3.84-3.84V118.825a3.866,3.866,0,0,1,3.379-3.814,47.063,47.063,0,0,1,12.658,0,3.866,3.866,0,0,1,3.379,3.814V145.3A3.839,3.839,0,0,1,56.677,149.136Z"/><path fill="#e4efff" d="M330,272.87H306.922c-2.074-1.3-4.426-1.2-7,0H248.384V218.051a9.472,9.472,0,0,0,0-7.265V158.421a10.426,10.426,0,0,0,0-7.244V85.924A13.321,13.321,0,0,1,256,73.912c12.441-5.939,28.831-7.97,43.926-6.2a6.7,6.7,0,0,0,7,1.114A66.63,66.63,0,0,1,322.463,73.9,13.291,13.291,0,0,1,330,85.874v9.539a9.075,9.075,0,0,0,0,7.355v76.641c-2.24,2.318-2.168,4.8,0,7.435v52.614a8.714,8.714,0,0,0,0,7.38Z"/><path fill="#3c3c4f" d="M295.06,149.136H283.323a3.839,3.839,0,0,1-3.839-3.84V118.825a3.866,3.866,0,0,1,3.379-3.814,47.063,47.063,0,0,1,12.658,0,3.866,3.866,0,0,1,3.379,3.814V145.3A3.84,3.84,0,0,1,295.06,149.136Z"/><path fill="#3c3c4f" d="M10,276.37H151.756c4.588-.075,4.61-6.921,0-7H128.4V229.193h16.911v9.891a3.5,3.5,0,0,0,7,0v-9.891H166.5v9.891a3.5,3.5,0,0,0,7,0v-9.891h14.193v9.891a3.5,3.5,0,0,0,7,0v-9.891H211.6V272.87a3.5,3.5,0,0,0,3.5,3.5H330a3.5,3.5,0,0,0,3.5-3.5V85.875a16.881,16.881,0,0,0-9.521-15.132c-19.729-9.487-49.6-9.484-69.491.01a16.911,16.911,0,0,0-9.6,15.17v32.848H231.392a8.913,8.913,0,0,0-8.9,8.9v12.945h-15.4V127.674a8.913,8.913,0,0,0-8.9-8.9H186.6a8.914,8.914,0,0,0-8.905,8.9v12.945H162.3V127.674a8.914,8.914,0,0,0-8.905-8.9H141.811a8.913,8.913,0,0,0-8.9,8.9v12.945h-15.4V127.674a8.913,8.913,0,0,0-8.9-8.9H95.116v-32.9A16.882,16.882,0,0,0,85.6,70.743c-19.729-9.487-49.6-9.484-69.492.01a16.913,16.913,0,0,0-9.6,15.17V272.87A3.5,3.5,0,0,0,10,276.37Zm85.116-93.582V167.453H112.7v15.335Zm110.351,16.528H194.693V187.579A41.92,41.92,0,0,1,205.467,199.316Zm-17.774,0H173.5V179.591a41.263,41.263,0,0,1,14.193,3.8Zm-21.193,0H152.307V183.394a41.263,41.263,0,0,1,14.193-3.8Zm-21.193,0H134.533a41.92,41.92,0,0,1,10.774-11.737ZM128.4,222.193a42.072,42.072,0,0,1,2.7-15.877h14.212v15.877Zm23.911,0V206.316H166.5v15.877Zm21.193,0V206.316h14.193v15.877Zm21.193,0V206.316h13.893c.1,0,.2-.022.307-.031a42.091,42.091,0,0,1,2.711,15.908ZM218.6,253.14h15.231a3.5,3.5,0,0,0,3.5-3.5V232.523h7.549V269.37H218.6Zm33.28-35.377c7.522-2.189,31.9-8.337,56.635-4.368a3.5,3.5,0,0,0,1.109-6.912,111.681,111.681,0,0,0-11.324-1.21v-23.96a89.054,89.054,0,0,1,28.2,6.03V240.31a95.244,95.244,0,0,0-23.139-5.126,125.482,125.482,0,0,0-16.768-.524V222.184a3.5,3.5,0,0,0-7,0v12.892c-3.464.29-6.728.684-9.718,1.13a3.5,3.5,0,0,0,1.031,6.923,132.878,132.878,0,0,1,29.016-1.229v27.47H251.884Zm55.038,51.607V242.662a84.024,84.024,0,0,1,19.578,5.131V269.37ZM326.5,85.875V96.219A93.14,93.14,0,0,0,306.922,91.5V72.4C314.676,74.587,326.266,76.073,326.5,85.875Zm-69-8.805c11.943-5.7,27.819-7.631,42.418-5.839V90.784c-3.23-.228-6.533-.342-9.923-.314a3.5,3.5,0,0,0,.033,7c13.629-.141,25.913,1.958,36.468,6.223v76.15c-13.886-5.064-30.047-6.788-48.094-5.116a3.5,3.5,0,1,0,.645,6.971q6.3-.584,12.253-.58v23.959a152.652,152.652,0,0,0-39.42,5.394V158.318c7.015-2.042,28.7-7.533,51.645-5.038a3.5,3.5,0,0,0,3.859-3.1c.3-2.968-2.46-4.111-4.989-4.04V115.59a3.5,3.5,0,0,0-2.789-3.426,51,51,0,0,0-20.837,0,3.5,3.5,0,0,0-2.789,3.426v30.879a154.789,154.789,0,0,0-24.1,4.558v-65.1A9.878,9.878,0,0,1,257.5,77.07ZM295.4,145.7c-4.279-.141-8.443-.062-12.415.177V118.53a43.946,43.946,0,0,1,12.415,0ZM108.608,125.771a1.906,1.906,0,0,1,1.9,1.9v16.445a3.5,3.5,0,0,0,3.5,3.5h22.4a3.5,3.5,0,0,0,3.5-3.5V127.674a1.906,1.906,0,0,1,1.9-1.9H153.4a1.907,1.907,0,0,1,1.905,1.9v16.445a3.5,3.5,0,0,0,3.5,3.5H181.2a3.5,3.5,0,0,0,3.5-3.5V127.674a1.907,1.907,0,0,1,1.905-1.9h11.587a1.906,1.906,0,0,1,1.9,1.9v16.445a3.5,3.5,0,0,0,3.5,3.5h22.4a3.5,3.5,0,0,0,3.5-3.5V127.674a1.906,1.906,0,0,1,1.9-1.9h13.492v41.454H215.912a3.5,3.5,0,0,0,0,7h11.2v13.029h-6.3c-4.6.078-4.6,6.922,0,7h15.706a3.5,3.5,0,0,0,0-7h-2.409V174.225h10.775v51.3H228.665c-4.6.079-4.6,6.922,0,7h1.67V246.14H218.6v-25.1c-2.672-64.483-94.549-64.458-97.208,0V269.37H95.116V249.422h16.2a3.5,3.5,0,0,0,0-7h-16.2V189.788H123.4a3.5,3.5,0,0,0,3.5-3.5c-.28-4.2-4.209-3.472-7.2-3.5V167.453h24.31a3.5,3.5,0,0,0,0-7H95.116V125.771ZM19.12,77.07c9.187-4.385,20.707-6.546,32.18-6.5,1.025,34.47-6.492,22.373,23.768,27.878a3.5,3.5,0,0,0,.677-6.935A110.261,110.261,0,0,0,58.3,89.546V70.89a70.33,70.33,0,0,1,24.263,6.161,9.844,9.844,0,0,1,5.553,8.824v65.169a97.421,97.421,0,0,0-24.1-4.964V115.59a3.5,3.5,0,0,0-2.789-3.426,50.966,50.966,0,0,0-20.837,0A3.5,3.5,0,0,0,37.6,115.59v31c-1.357.155-2.686.319-3.95.5a3.5,3.5,0,0,0,.975,6.932c14.148-1.99,34.78-2.766,53.49,4.5V269.37H13.5V240.913a147.761,147.761,0,0,1,23.328-4.825v17.657a3.5,3.5,0,0,0,7,0V235.377a118.059,118.059,0,0,1,25.45.641,3.5,3.5,0,0,0,.983-6.93c-24.633-3.5-47.9,2-56.761,4.519v-131.2a146.023,146.023,0,0,1,22.981-4.8,3.5,3.5,0,1,0-.888-6.943A155.133,155.133,0,0,0,13.5,95.111V85.923A9.878,9.878,0,0,1,19.12,77.07Zm37.9,68.623c-4.327-.111-8.488.012-12.415.273V118.53a43.835,43.835,0,0,1,12.415,0Z"/><path fill="#3c3c4f" d="M24.647,193.99a3.507,3.507,0,0,0,4.068,2.821A139.453,139.453,0,0,1,58.878,194.6v15.77a3.5,3.5,0,0,0,7,0V195.112c2.382.255,4.778.584,7.179,1.023a3.5,3.5,0,0,0,1.259-6.885,122.071,122.071,0,0,0-30.488-1.4v-8.981a3.5,3.5,0,0,0-7,0v9.648c-3.41.406-6.561.894-9.359,1.4A3.5,3.5,0,0,0,24.647,193.99Z"/></svg>