<svg xmlns="http://www.w3.org/2000/svg" viewBox="0 0 340 340"><path fill="#b25151" d="M308.477,57.142c-14.585-13.7-21.121-27.176-24.026-35.874A11.6,11.6,0,0,0,271.317,13.6l-14.178,2.635C245.6,22.548,233.914,36.876,227.617,45.4a24.352,24.352,0,0,0,.7,29.751,63.055,63.055,0,0,0,18.564,15.222,11.281,11.281,0,0,0,14.572-3.152A20.1,20.1,0,0,0,264.9,78.5a4.709,4.709,0,0,0-4-5.384,22.72,22.72,0,0,1-7.6-2.325,11.882,11.882,0,0,1-3.8-17.655c5.649-7.449,15.588-7.449,15.588-7.449,14.353,0,21,8.225,24,17.132a32.555,32.555,0,0,1-6.195,31.072,174.748,174.748,0,0,0-13.19,18.166,28.988,28.988,0,0,0-4.45,16.061L266.2,176.4h17.32c.323-21.333,1.076-38.274,1.525-46.939a37.92,37.92,0,0,1,4.622-16.438c4.913-8.861,12.183-16.992,16.893-21.8a21.365,21.365,0,0,0,5.823-11.358l1.27-7.465A17.022,17.022,0,0,0,308.477,57.142Z"/><path fill="#d88783" d="M143.987,8.467q-.345.037-.708.081a52.278,52.278,0,0,0-38.73,25.576c-5.619,9.587-15.18,23.47-28.373,34.1-21.445,17.281-21.5,33.962-15.527,48.317,13.488,16.629,75.718,3.663,142.474-12.05,2.546-7.126,2.828-16.261-3.032-27.1a49.888,49.888,0,0,0-9.933-12.66c-5.924-5.531-18.011-17.24-26.9-28.658a54.717,54.717,0,0,1-9.484-19.215c-.278-1.013-.606-2.065-.993-3.1A8.368,8.368,0,0,0,143.987,8.467Z"/><path fill="#874f4f" d="M203.12,104.491c-21.267,4.179-48.783-12.229-64.465-15.61-17.014-3.668-39.612,9.4-58.412,23.385-8.413,6.258-14.939,6.22-19.59,4.274.25.6.505,1.2.775,1.786C68.151,133.075,94.4,129.171,94.4,129.171l95-7.158S199.09,115.767,203.12,104.491Z"/><path fill="#3c3c4f" d="M108.944 59.483q-1.128 1.622-2.253 3.347A141.924 141.924 0 0 1 90.47 83.013a16.139 16.139 0 0 0-2.2 18.925c3.868 7.381 18.191 8.877 27.31 9.055a115.52 115.52 0 0 1 15.889 1.384c14.835 2.352 45.056 4.764 46.449-14.316 0 0 .1-12.384-10.336-24.7a84.451 84.451 0 0 1-6.538-8.8zM21.068 331.585H77.835V225.067S19.161 262.679 21.068 331.585z"/><polygon fill="#3c3c4f" points="197.949 331.585 255.371 331.585 215.506 263.491 192.036 263.491 197.949 331.585"/><path fill="#3c3c4f" d="M255.371,331.585h36.243s31.379-4.965,23.823-68.094L290.1,203.919l-44,5.777S198.416,309.474,255.371,331.585Z"/><path fill="#d88783" d="M69.605,271.2q.018,1.969.042,3.969a33.579,33.579,0,0,1-3.157,14.832c-4.5,9.463-9.772,28.472,11.345,41.58h13.6c3.5-1.953,7.582-1.565,11.952,0h20.89a14.749,14.749,0,0,1,9,0h33.039c6.053-1.373,11.306-1.816,14.619,0h17.015s18.309-4.993,8.6-51.433l25.992-.229,18.265-80.549c-4.708-.427-9.859-.164-14.247,1.79-4.466.192-6.253-3.388-6.742-8.793a50.468,50.468,0,0,1-4.75-14.867C173.818,181.244,91.979,225.067,69.605,271.2Z"/><path fill="#874f4f" d="M255.371 331.585s-15.812-9.382-15.812-43.225 25.521-85.716 25.521-85.716a58.248 58.248 0 0 0-14.275-3.269c-8.758 9.113-19.872 25-24.846 50.608a4.942 4.942 0 0 1-9.569.467q-.8-2.638-1.65-5.8s-1.946-11.078-8.67-17.233a2.166 2.166 0 0 0-3.476 2.346 24.485 24.485 0 0 1 1.071 11.23c-2.185 18.326 2.883 39.164 2.883 39.164l.025.1C207.13 282.5 218.354 325.863 255.371 331.585zM166.667 166.786c-22.83 6.556-49.176 17.85-72.659 37.29a14.624 14.624 0 0 0 4.207 2.2C91.9 235.946 112.7 250.559 123.454 256a23.918 23.918 0 0 1 9.13 7.944l.241.354c7.082 10.325 23.344 5.1 22.979-7.412a38.182 38.182 0 0 0-2.621-12.238q.515-.179.994-.371a11.752 11.752 0 0 0 4.861-17.939c-8.031-10.646-11.823-25.6.881-45.568A67.71 67.71 0 0 0 166.667 166.786z"/><path fill="#874f4f" d="M225.076,177.5a83.649,83.649,0,0,1-.774-19.8s-97.367-.832-154.511,71.014c0,0-.395,19.549-.185,42.485C107.976,229.4,200.771,187.917,225.076,177.5Z"/><path fill="#ffd7cd" d="M149.747,105.557a10.15,10.15,0,0,0,10.136-9.452c.484-7.093.807-14.845,1.008-23.093-6.857-13.038-13.7-26.12-25.888-23.03-12.3,2.025-21.619,7.925-25.887,20.358.182,9.462.453,18.14.861,25.6a10.161,10.161,0,0,0,10.144,9.617Z"/><path fill="#d88783" d="M228.357,145.918c4.032,8.106.075,17.95-8.234,21.543-12.2,5.276-37.143,16.208-67.6,30.349-19.8,2.2-37.952,11.674-54.589,27.781-76.071,47.622-76.87,105.994-76.87,105.994h-4.2A10.818,10.818,0,0,1,6.053,321.167c-1.688-47.888,15.995-70.338,15.995-70.338,1.733-6.248,2.386-12.06.511-16.853,3.612-25.313,19.077-38.321,19.077-38.321a13.548,13.548,0,0,0,2.786-11.629c7.616-25.6,22.026-40.28,22.026-40.28,25.791-31.668,65.594-36.565,65.594-36.565l21.248,2.612a311.917,311.917,0,0,0,37.939,5.858,15.123,15.123,0,0,1,10.78,5.956,26.624,26.624,0,0,1,2.105,3.339,14.912,14.912,0,0,0,7.155,6.6C216.583,133.879,224.65,138.466,228.357,145.918Z"/><path fill="#874f4f" d="M170.485,133.527,99.417,127.24s5.715,36.151-5.989,55.236,4.787,23.8,4.787,23.8a45.971,45.971,0,0,0-.273,19.325,273.559,273.559,0,0,1,27.271-14.925c9.444-4.513,18.6-8.818,27.314-12.863a53.038,53.038,0,0,1,7.392-17.043C174.29,158.175,170.485,133.527,170.485,133.527Z"/><path fill="#fdfbff" d="M132.82,93.483s-23.183.2-31.715,21.434-10.6,34.614-2.641,56.668c0,0,2.94,8.989,0,16.845a5.669,5.669,0,0,0,6.97,7.515,14.522,14.522,0,0,0,6.292-3.937s-14.218,27.323,4.645,45.948c10.864,10.726,18.489,13.4,22.547,19.24a4.983,4.983,0,0,0,9-3.54c-.675-5.011-2.95-10.807-8.07-17.14,0,0,1.693,1.164,5.84,1.517a5.545,5.545,0,0,0,4.787-8.974,29.512,29.512,0,0,1-6.307-24.944c4.235-21.175,16.94-39.023,16.94-39.023s19.361-28.436,2.431-54.038c-6.907-10.445-17.794-17.652-30.315-17.576Z"/><path fill="#d88783" d="M277.639,194.973s1.712,8.841,15.686,29.375,31.943,90.128-1.711,107.237c0,0,37.954.425,42.21-29.378,0,0,4.62-45.662-29.124-86.838a86.655,86.655,0,0,1-8.33-12.073,51.049,51.049,0,0,1-3.831-8.069Z"/><path fill="#ffd7cd" d="M253.493,212.588c-7.155,17.846-14.394,44.6-9.17,72.211a36.643,36.643,0,0,0,4.384,13.19,13.906,13.906,0,0,0,24.482-.142,64.071,64.071,0,0,0,5.747-15.4V234.466C271.4,221.42,263.045,213.4,253.493,212.588Z"/><path fill="#f79089" d="M253.494,212.589c2.469,6.564,7.49,13.667,17.451,18.835a36.787,36.787,0,0,0,7.991,3.042v-43.6H264.153A145.716,145.716,0,0,0,253.494,212.589Z"/><path fill="#b9b4d3" d="M144.172,204.115c2.993-14.966,10.213-28.261,14.192-34.776h0c-12.684,11.629-19.91,21.8-23.914,30.175a2.386,2.386,0,0,1-4.5-1.437c1.522-9.747-1.048-21.658-12.9-21.681s-18.629-8.835-22.294-17.686a92.446,92.446,0,0,0,3.711,12.875s2.94,8.989,0,16.845a5.669,5.669,0,0,0,6.97,7.515,14.522,14.522,0,0,0,6.292-3.937s-14.218,27.323,4.645,45.948c10.863,10.726,18.488,13.4,22.546,19.239,2.964,4.266,9.7,1.587,9-3.56-.679-5.007-2.955-10.795-8.067-17.119,0,0,1.69,1.162,5.831,1.516a5.547,5.547,0,0,0,4.794-8.974A29.517,29.517,0,0,1,144.172,204.115Z"/><path fill="#f79089" d="M161.053,64.561c-.74-1.147-1.456-2.309-2.135-3.493a86.692,86.692,0,0,0-8.229-11.941,22.025,22.025,0,0,0-33.751-.036c-2.566,3.019-5.276,6.489-7.99,10.394q.068,5.573.17,10.855c4.4-6.606,10.439-14.91,23.75-16.246,0,0,10.662-2.056,18.16,9.016a35.709,35.709,0,0,0,9.862,9.9Q160.992,68.867,161.053,64.561Z"/><path fill="#b25151" d="M283.923,233.171c-.749-23.729-.646-46.325-.259-64.8a166.2,166.2,0,0,0-17.593,1.577l1.174,59.33h0l.813,41.061v61.247H285l.8-61.65C284.906,257.651,283.922,233.171,283.923,233.171Z"/><path fill="#f79089" d="M258.75,152.429h-6.617a9.577,9.577,0,0,0-9.577,9.577V175.99a8.1,8.1,0,0,0,8.1,8.1h10.086Z"/><path fill="#ffd7cd" d="M287.892,152.429h-29v11.7a11.04,11.04,0,0,1,0,7v10.111a9.657,9.657,0,0,1,0,7v4.564a8.521,8.521,0,0,0,8.522,8.521h20.48a10.8,10.8,0,0,0,10.8-10.8V163.225A10.8,10.8,0,0,0,287.892,152.429Z"/><path fill="#3c3c4f" d="M291.364,335.085c28.459,0,45.054-5.606,45.95-32.622.288-3.008,3.921-48.034-29.907-89.312a82.114,82.114,0,0,1-8.848-13.132,14.22,14.22,0,0,0,3.63-9.486V163.225a14.319,14.319,0,0,0-14.479-14.3c.3-8.411.609-15.058.829-19.286.167-13.944,12.6-27.733,20.521-35.972a24.753,24.753,0,0,0,6.772-13.22l1.271-7.464a20.483,20.483,0,0,0-6.229-18.394C296.9,41.463,290.6,28.621,287.771,20.159a15.145,15.145,0,0,0-17.093-10L256.5,12.8c-12.805,6.029-25.265,22.055-31.7,30.521-14.994,21.145,3.329,41.228,20.4,50.123a14.783,14.783,0,0,0,19.1-4.183,25.022,25.022,0,0,0,4.261-16.294,3.5,3.5,0,0,0-3.449-3.069,22.107,22.107,0,0,1-10.181-2.206c-4.451-2.211-5.734-8.588-2.643-12.447,4.492-5.921,12.732-6.061,12.8-6.062,22.4-.957,28.165,27.8,15.11,42.467a179.839,179.839,0,0,0-13.458,18.534,32.4,32.4,0,0,0-4.989,18l.411,20.746c-2.145-.031-7.8.023-10.02,0a13.093,13.093,0,0,0-13.078,13.078V175.99a11.61,11.61,0,0,0,11.6,11.6h4.737c-.095,3.013.005,6.5,1.427,9.131-5.624-1.1-12.987-1.725-19.487.405-2.819-2.863-9.374-12.249-9.78-30.557,14.484-15.638-.015-32.3-14.874-38.225-5.763-2.329-6.624-9.54-11.759-12.653,5.982-7.906,12.066-21.812,2.253-39.96a53.355,53.355,0,0,0-10.623-13.554c-6.2-5.787-17.888-17.153-26.532-28.251a51.031,51.031,0,0,1-8.869-17.992C155.8,9.252,150.794,4.249,143.611,4.987,102.276,10.4,103.948,41.728,73.981,65.5c-19.922,16.053-25.07,33.808-15.738,54.279,2.56,5.613,7.708,9.568,15.039,11.653-11.121,11.875-25.569,23.018-34.806,62.1-5.509,3.844-24.5,19.922-20.076,56.37-3.721,5.442-17.358,28.444-15.845,71.385a14.258,14.258,0,0,0,14.313,13.794ZM66.147,275.216A30.222,30.222,0,0,1,63.329,288.5c-3.64,7.658-9.492,25.288,4.484,39.582H24.883c2.707-22.63,17.717-51.4,41.163-73.423C66.035,261.8,66.068,268.694,66.147,275.216Zm142.9,49.574c2.565-5.379,3.848-12.241,3.849-20.52,5.04,8.543,12.356,17.619,22.663,23.815H207.172A25.877,25.877,0,0,0,209.049,324.79Zm34.212-30.238c3.222,9.577,11.128,15.938,21.3,13.8v19.735h-8.054C253.908,325.994,244.72,317.052,243.261,294.552Zm18.568-92.088a14.282,14.282,0,0,0,1.4.808c.447,20.906,1.663,77.693,1.328,97.782-12.315,4.155-15.983-11.193-16.748-16.537C241.349,250.984,254.084,218.106,261.829,202.464Zm9.73,125.621c.311-30.483-.455-92.63-1.3-123.256H279.9c.154,23.45.957,45.386,2.4,65.211l-.754,58.045Zm19.164,0H288.55l.755-58.1c-1.076-15.124-1.84-31.368-2.185-48.663C301.959,239.534,322.408,309.64,290.723,328.085Zm11.27-110.5c32.446,39.781,28.373,83.6,28.334,84.451-.545,17.875-13.4,25.618-28.5,26.358,24.5-26.275,7.979-85.128-5.605-106.018-3.66-5.378-6.781-10.41-9.3-14.983-.007-.854-.015-1.708-.02-2.567a15.271,15.271,0,0,0,5.841-.865A88.686,88.686,0,0,0,301.993,217.588Zm-6.8-54.363v27.308a7.305,7.305,0,0,1-7.3,7.3h-18.2a7.3,7.3,0,0,1-7.3-7.3v-2.946h16.547a3.5,3.5,0,0,0,0-7H262.39v-8.829h16.547a3.5,3.5,0,0,0,0-7H262.39v-8.83h25.5A7.305,7.305,0,0,1,295.189,163.225Zm-26.448-35.181a25.414,25.414,0,0,1,3.909-14.122,172.835,172.835,0,0,1,12.923-17.8A36.271,36.271,0,0,0,292.4,61.7c-8.991-29.634-52.65-22.57-48.457,2.026,1.777,8.318,9.527,12.271,17.643,12.992-.4,6.333-4.932,14.518-13.031,10.583-7.521-4.023-22.906-15.082-22.165-27.479a20.615,20.615,0,0,1,4.048-12.341c5.771-7.812,17-21.718,27.908-27.9l13.616-2.531a8.119,8.119,0,0,1,9.175,5.332c3.08,9.225,9.909,23.188,24.949,37.316A13.5,13.5,0,0,1,310.2,71.811c-.935,5.679-1.573,12.831-6.143,16.959-9.018,9.2-22.415,24.908-22.51,40.509-.224,4.3-.543,11.072-.844,19.649h-11.55Zm-18.088,52.543a4.6,4.6,0,0,1-4.6-4.6V162.006a6.085,6.085,0,0,1,6.078-6.078h3.256v24.659ZM230.911,200.42a28.554,28.554,0,0,0-8.537,9.242c-2.187,4.033,3.751,7.416,6.1,3.439,6.016-9.4,12.925-10.6,20.268-10.366-10.692,7.778-27.354,26.5-26.817,67.468a3.5,3.5,0,0,0,7-.091c-.464-35.42,12.583-52.49,21.858-60.132-5.755,14.047-11.764,33.946-11.72,55.639-5.938,20.295-2.555,47.021,5.667,59.269-33.987-17.616-39.614-54.91-37.588-83.485,1.605-13.457-5.563-20.05-5.869-20.324-3.435-2.959-7.964,2.012-4.7,5.183.195.185,4.775,4.645,3.622,14.312-2.193,18.4,2.565,38.765,2.94,40.324,8.046,38.519-3.845,46.194-5.828,47.187H177.353c7.044-11.757,4.424-31.728,4.025-34.445a3.5,3.5,0,0,0-6.926,1.015c1.1,7.566,2.013,27.9-6.412,33.43H131.279c-1.525-2.757-1.8-7.092-1.757-8.6a3.5,3.5,0,0,0-7-.213,29.167,29.167,0,0,0,1.209,8.809H100.781c-3.783-4.08-4.045-12.813-3.8-16.035.282-4.59-6.55-5.13-6.978-.55-.1,1.225-.624,9.648,2.54,16.585H78.854c-16.749-10.918-14.29-25.873-9.2-36.577a37.255,37.255,0,0,0,3.5-16.377c-.1-8.425-.128-17.469-.078-26.879a207.226,207.226,0,0,1,18.255-14.108c-.446,7.725-1.2,21.819-1.33,31a3.5,3.5,0,0,0,7,.1c.173-12.218,1.471-33.361,1.631-35.935,2.012-1.278,4.072-2.55,6.2-3.813,2.938,11.542,15.112,20.859,23.265,26.7,3.634,2.639,6.259,4.546,7.96,6.995,5.01,7.289,16.6,2.643,15.344-6a33.9,33.9,0,0,0-3.979-11.716c6.709-.726,10.252-9.412,5.8-14.6a25.909,25.909,0,0,1-5.407-23c7.58-3.542,14.858-6.9,21.739-10.048a287.353,287.353,0,0,0-2.557,37.6,3.5,3.5,0,0,0,7,0,278.948,278.948,0,0,1,3.144-41.057c19.04-8.641,34.4-15.371,43.655-19.378C221.927,186.845,227.227,195.93,230.911,200.42ZM101.79,170.5c-7.793-21.521-5.528-34.178,2.562-54.275,7.511-18.689,27.576-19.225,28.5-19.239,10.8-.194,20.906,5.64,27.768,16,15.4,23.289-2.226,49.877-2.362,50.078-.536.754-13.189,18.707-17.521,40.367a33.077,33.077,0,0,0,7.008,27.821,1.96,1.96,0,0,1,.192,2.217c-.675,2.107-5.683.386-5.979.207-20.322-19.808-11.993-43.342-1.128-63.773,12.656-23.8.991-45.645.488-46.564a3.5,3.5,0,0,0-6.144,3.354c.427.788,10.317,19.54-.524,39.923-11.406,21.448-21.4,49.018,2.56,72.21,4.125,5.134,6.564,10.281,7.24,15.3A1.476,1.476,0,0,1,141.8,255.2c-2.377-3.422-5.563-5.736-9.6-8.665a106.97,106.97,0,0,1-13.366-11.069c-16.767-16.567-4.524-40.814-3.994-41.855,10.817-17.22-5.176-43.147,6.869-54.288,3.732-2.586-.016-8.279-3.879-5.826-16.776,13.03.209,39.964-8.936,56.39-1.258,1.211-4.973,4.033-6.668,2.221a2.307,2.307,0,0,1-.48-2.451C105.072,180.754,101.926,170.912,101.79,170.5ZM112.461,60.57c5.712-7.792,10.791-15.987,21.568-15.831a18.217,18.217,0,0,1,13.961,6.615,102.908,102.908,0,0,1,9.547,14.2c-.461,12.72-.064,22.6-1.59,32.224-11.88-8.56-25.44-11.24-42.486-2.237C112.978,86.639,112.651,75.187,112.461,60.57Zm52.454,15.057c8.946,10.558,9.476,21.258,9.5,22.321-.256,3.156-1.512,7.5-8.649,10.189a48,48,0,0,0-4.445-5.509,13.642,13.642,0,0,0,2.049-6.285c.434-6.368.752-13.449.966-21.417C164.534,75.159,164.72,75.4,164.915,75.627Zm-59.3-5.13c.2,10.255.484,18.7.862,25.636a13.768,13.768,0,0,0,.8,3.86,34.925,34.925,0,0,0-5.355,6.045c-5.605-1.251-9.244-3.221-10.556-5.725a12.658,12.658,0,0,1,1.548-14.8A152.066,152.066,0,0,0,105.619,70.5ZM209.861,134.75c6.657,2.672,20.053,11.473,15.834,22.128a12.89,12.89,0,0,1-6.963,7.371c-12.7,5.494-37.871,16.533-68.522,30.778a117.962,117.962,0,0,1,13.8-27.965c.767-1.128,17.06-25.58,6.463-50.493,6.915,1.091,13.768,1.956,20.441,2.567,4.665.369,8.14,3.431,10.118,7.462A18.49,18.49,0,0,0,209.861,134.75ZM64.612,116.875c-4.985-10.937-8.984-27.6,13.761-45.925,13.55-10.92,23.356-25.091,29.195-35.056A49.007,49.007,0,0,1,143.7,12.023c4.231-.7,5.884,2.117,6.694,5.762C154.7,37.04,177.113,56.846,187.77,67.291c15.348,14.165,17.6,33.043,6.615,45.378-6.135-1.107-12.35-1.323-18.68-2.4a17.427,17.427,0,0,0,5.717-12.181c0-.559-.022-13.835-11.167-26.988-11.28-12.829-15.8-33.211-36.175-33.362-13.959-.064-20.694,9.359-28.01,19.746A148.251,148.251,0,0,1,87.975,80.558c-8.339,8.245-8.052,27.8,10.423,31.812-.387.838-.737,1.724-1.074,2.585a109.817,109.817,0,0,0-17.2,10.752C72.017,124.625,66.794,121.659,64.612,116.875ZM9.551,321.044C7.938,275.3,24.579,253.278,24.8,253c.407-.5,15.048-18.491,32.562-27.856a3.5,3.5,0,1,0-3.3-6.173c-12.354,6.606-23.082,16.858-29.238,23.423-.364-39.1,20.972-46.548,41.489-55a3.5,3.5,0,1,0-2.01-6.7c-5.588,1.676-12.464,5.15-17.512,7.931,9.745-34.819,29.49-52.84,46.913-63.643-5,15.65-5.423,28.661,1.448,47.731.172.565,2.4,8.189.042,14.5-2.615,6.411,3.224,13.74,10.025,12.395a51.48,51.48,0,0,0-1.828,18.631c-54.958,33.1-79.189,69.706-85.564,109.854A7.418,7.418,0,0,1,9.551,321.044Z"/><path fill="#3c3c4f" d="M129.532 74.1c-2.505-1.491-6.236-2.925-7.674.79a3.5 3.5 0 0 0 2.229 4.42c1.411.38 2.283 1.328 3.669 1.308A3.512 3.512 0 0 0 129.532 74.1zM142.244 80.617c1.388.019 2.256-.927 3.67-1.308a3.5 3.5 0 0 0 2.229-4.42c-1.289-3.648-5.295-2.288-7.675-.79A3.512 3.512 0 0 0 142.244 80.617z"/></svg>